# xmcd CD database file
#
# Track frame offsets:
#	150
#	20477
#	31417
#	47404
#	62700
#	78888
#	92687
#	110614
#	139491
#	157486
#	176159
#	191070
#	204686
#	222579
#
# Disc length: 3317 seconds
#
# Revision: 1
# Processed by: cddbd v1.5.2PL0 Copyright (c) Steve Scherf et al.
# Submitted via: CDex 1.70beta2
#
DISCID=d30cf30e
DTITLE=Rod Piazza and The Mighty Flyers - Beyond The Source
DYEAR=2001
DGENRE=Blues
TTITLE0=Who knows what's going on?
TTITLE1=Love to spare
TTITLE2=Twist city
TTITLE3=Shim sham shimmy
TTITLE4=Lovin' daddy blues
TTITLE5=If it is
TTITLE6=Shakin' hands with the blues
TTITLE7=High flyin' baby
TTITLE8=In a wrong world
TTITLE9=Easy baby
TTITLE10=Reece's boogie
TTITLE11=This time, this time
TTITLE12=Ghosting
TTITLE13=Miss Bee-havin'
EXTD=YEAR: 2001
EXTT0=
EXTT1=
EXTT2=
EXTT3=
EXTT4=
EXTT5=
EXTT6=
EXTT7=
EXTT8=
EXTT9=
EXTT10=
EXTT11=
EXTT12=
EXTT13=
PLAYORDER=
